<?xml version="1.0" encoding="utf-8"?>
<!-- Generator: Adobe Illustrator 25.2.1, SVG Export Plug-In . SVG Version: 6.00 Build 0)  -->
<svg version="1.1" id="Group_1_1_" xmlns="http://www.w3.org/2000/svg" xmlns:xlink="http://www.w3.org/1999/xlink" x="0px" y="0px"
	 viewBox="0 0 53 54" style="enable-background:new 0 0 53 54;" xml:space="preserve">
<style type="text/css">
	.st0{fill:#CC0000;stroke:#CC0000;stroke-width:4.107;stroke-linecap:round;stroke-miterlimit:10;}
	.st1{fill:#CC0000;}
	#hour_hand {
  transform-origin: center;
  animation: hourHandRotate ease-in-out 2s infinite;
  }
	@keyframes hourHandRotate {
		from {
			transform: rotate(1deg);
		}
		to {
			transform: rotate(360deg);
		}
	}
</style>
<g id="X_1_">
	<line class="st0" x1="26.47" y1="27.01" x2="35.85" y2="32.78"/>
	<g>
		<line class="st1" x1="26.47" y1="1.47" x2="26.47" y2="5.61"/>
		<path class="st1" d="M26.47,6.08C26.21,6.08,26,5.87,26,5.61V1.47C26,1.21,26.21,1,26.47,1c0.26,0,0.47,0.21,0.47,0.47v4.14
			C26.94,5.87,26.73,6.08,26.47,6.08z"/>
	</g>
	<g>
		<line class="st1" x1="13.7" y1="4.89" x2="15.77" y2="8.47"/>
		<path class="st1" d="M15.77,8.94c-0.16,0-0.32-0.08-0.41-0.23L13.3,5.12c-0.13-0.22-0.05-0.51,0.17-0.64
			c0.22-0.13,0.51-0.05,0.64,0.17l2.07,3.58c0.13,0.22,0.05,0.51-0.17,0.64C15.93,8.92,15.85,8.94,15.77,8.94z"/>
	</g>
	<g>
		<line class="st1" x1="4.36" y1="14.23" x2="7.94" y2="16.3"/>
		<path class="st1" d="M7.94,16.77c-0.08,0-0.16-0.02-0.23-0.06l-3.58-2.07C3.9,14.51,3.82,14.22,3.95,14
			c0.13-0.22,0.42-0.3,0.64-0.17l3.58,2.07c0.22,0.13,0.3,0.42,0.17,0.64C8.26,16.69,8.1,16.77,7.94,16.77z"/>
	</g>
	<g>
		<line class="st1" x1="0.94" y1="27" x2="5.07" y2="27"/>
		<path class="st1" d="M5.07,27.47H0.94c-0.26,0-0.47-0.21-0.47-0.47c0-0.26,0.21-0.47,0.47-0.47h4.14c0.26,0,0.47,0.21,0.47,0.47
			C5.54,27.26,5.33,27.47,5.07,27.47z"/>
	</g>
	<g>
		<line class="st1" x1="4.36" y1="39.77" x2="7.94" y2="37.7"/>
		<path class="st1" d="M4.36,40.23c-0.16,0-0.32-0.08-0.41-0.23c-0.13-0.22-0.05-0.51,0.17-0.64l3.58-2.07
			c0.22-0.13,0.51-0.05,0.64,0.17c0.13,0.22,0.05,0.51-0.17,0.64l-3.58,2.07C4.52,40.21,4.44,40.23,4.36,40.23z"/>
	</g>
	<g>
		<line class="st1" x1="13.7" y1="49.11" x2="15.77" y2="45.53"/>
		<path class="st1" d="M13.7,49.58c-0.08,0-0.16-0.02-0.23-0.06c-0.22-0.13-0.3-0.42-0.17-0.64l2.07-3.58
			c0.13-0.22,0.42-0.3,0.64-0.17c0.22,0.13,0.3,0.42,0.17,0.64l-2.07,3.58C14.02,49.5,13.86,49.58,13.7,49.58z"/>
	</g>
	<g>
		<line class="st1" x1="26.47" y1="52.53" x2="26.47" y2="48.39"/>
		<path class="st1" d="M26.47,53C26.21,53,26,52.79,26,52.53v-4.14c0-0.26,0.21-0.47,0.47-0.47c0.26,0,0.47,0.21,0.47,0.47v4.14
			C26.94,52.79,26.73,53,26.47,53z"/>
	</g>
	<g>
		<line class="st1" x1="39.23" y1="49.11" x2="37.16" y2="45.53"/>
		<path class="st1" d="M39.23,49.58c-0.16,0-0.32-0.08-0.41-0.23l-2.07-3.58c-0.13-0.22-0.05-0.51,0.17-0.64
			c0.22-0.13,0.51-0.05,0.64,0.17l2.07,3.58c0.13,0.22,0.05,0.51-0.17,0.64C39.39,49.56,39.31,49.58,39.23,49.58z"/>
	</g>
	<g>
		<line class="st1" x1="48.58" y1="39.77" x2="45" y2="37.7"/>
		<path class="st1" d="M48.58,40.23c-0.08,0-0.16-0.02-0.23-0.06l-3.58-2.07c-0.22-0.13-0.3-0.42-0.17-0.64
			c0.13-0.22,0.42-0.3,0.64-0.17l3.58,2.07c0.22,0.13,0.3,0.42,0.17,0.64C48.9,40.15,48.74,40.23,48.58,40.23z"/>
	</g>
	<g>
		<line class="st1" x1="52" y1="27" x2="47.86" y2="27"/>
		<path class="st1" d="M52,27.47h-4.14c-0.26,0-0.47-0.21-0.47-0.47s0.21-0.47,0.47-0.47H52c0.26,0,0.47,0.21,0.47,0.47
			S52.26,27.47,52,27.47z"/>
	</g>
	<g>
		<line class="st1" x1="48.58" y1="14.23" x2="45" y2="16.3"/>
		<path class="st1" d="M45,16.77c-0.16,0-0.32-0.08-0.41-0.23c-0.13-0.22-0.05-0.51,0.17-0.64l3.58-2.07
			c0.22-0.13,0.51-0.05,0.64,0.17c0.13,0.22,0.05,0.51-0.17,0.64l-3.58,2.07C45.16,16.75,45.08,16.77,45,16.77z"/>
	</g>
	<g>
		<line class="st1" x1="39.23" y1="4.89" x2="37.16" y2="8.47"/>
		<path class="st1" d="M37.16,8.94c-0.08,0-0.16-0.02-0.23-0.06c-0.22-0.13-0.3-0.42-0.17-0.64l2.07-3.58
			c0.13-0.22,0.42-0.3,0.64-0.17c0.22,0.13,0.3,0.42,0.17,0.64l-2.07,3.58C37.48,8.86,37.33,8.94,37.16,8.94z"/>
	</g>
	<line class="st0" x1="26.53" y1="12.03" x2="26.48" y2="26.87" id="hour_hand" />
</g>
<g id="Y_1_">
</g>
</svg>
