<?xml version="1.0" encoding="utf-8"?>
<!-- Generator: Adobe Illustrator 25.2.1, SVG Export Plug-In . SVG Version: 6.00 Build 0)  -->
<svg version="1.1" id="Group_1_1_" xmlns="http://www.w3.org/2000/svg" xmlns:xlink="http://www.w3.org/1999/xlink" x="0px" y="0px"
	 viewBox="0 0 53 54" style="enable-background:new 0 0 53 54;" xml:space="preserve">
<style type="text/css">
	.st0{fill:#CC0000;}
	#cross_mark {
  	animation: fadeInAnimation ease-in-out 1s infinite;
		transform: scale(1);
		transform-origin: center;
  }
	@keyframes fadeInAnimation {
		from {
			transform: scale(0);
			opacity: 0.5;
		}
		to {
			transform: scale(1);
			opacity: 1;
		}
	}
</style>
<g id="calendar">
	<g>
		<path class="st0" d="M38.4,9c2.26,0,2.54-1.83,2.54-4.1V2.69c0-1-0.28-2.71-2.54-2.71c-2.26,0-2.41,1.44-2.41,2.71V4.9
			C35.99,7.16,36.14,9,38.4,9z M14.47,9c2.26,0,2.54-1.83,2.54-4.1V2.69c0-1.26-0.15-2.71-2.41-2.71c-2.26,0-2.6,1.27-2.6,2.71V4.9
			C12,7.16,12.22,9,14.47,9z M48.85,5.02h-6.92v1.49c0,2.47-0.97,3.5-3.46,3.5c-2.23,0-3.5-1.68-3.5-3.5V5.02H18v1.49
			c0,0.76-0.02,3.53-3.46,3.53c-3.44,0-3.46-2.57-3.46-3.53V5.02H4.15C1.86,5.02,0,6.42,0,8.72v41.11c0,2.3,1.86,4.16,4.15,4.16
			h44.69c2.29,0,4.15-1.86,4.15-4.16V8.72C53,6.42,51.14,5.02,48.85,5.02z M48.98,50.02H4.02V13.01h44.96V50.02z"/>
	</g>
</g>
<g id="Shape_5">
	<g>
		<path id="cross_mark" class="st0" d="M24.44,33.7c-0.01-0.03-0.01-0.09-0.05-0.08c-0.03,0.01-0.02-0.01-0.03-0.02c-0.06-0.04-0.09-0.07-0.12-0.15
			c-0.03-0.04-0.11,0.02-0.12-0.03c0.01-0.1-0.06-0.06-0.08-0.1c0.02,0,0.04-0.01,0.06-0.01c-0.07-0.12-0.2-0.15-0.27-0.27
			c-0.05,0.01-0.09,0.02-0.14,0.03c0-0.04,0.03-0.06,0.04-0.1c-0.04-0.01-0.07-0.02-0.1-0.04c-0.05,0.01,0-0.05-0.04-0.05
			c0,0.08-0.07-0.07-0.07-0.07c-0.01-0.02-0.06-0.02-0.05-0.08c-0.05-0.01-0.1-0.04-0.14-0.09c0.05-0.08-0.07-0.08-0.09-0.16
			c-0.05,0-0.06,0.06-0.08,0.02c0-0.1-0.05-0.13-0.07-0.2c-0.04,0.02-0.07,0-0.09-0.01c-0.02-0.01-0.05-0.04-0.07-0.04
			c0.05-0.03-0.02-0.03-0.04-0.05c-0.02-0.02-0.03-0.06-0.05-0.08c-0.01-0.01-0.06-0.02-0.05-0.08c-0.05,0.01-0.1,0-0.12-0.03
			c-0.01-0.09-0.08-0.07-0.09-0.16c-0.09,0-0.08-0.08-0.14-0.12c0.01,0-0.02,0.05-0.03,0.01c-0.01-0.07-0.07-0.07-0.07-0.17
			c-0.09,0.05-0.1-0.02-0.11-0.1c0.07-0.01,0.11-0.03,0.13-0.06c0.02,0.05-0.02,0.08,0.02,0.09c0.02-0.06,0.04-0.11,0.06-0.14
			c0-0.01,0.05,0,0.06-0.01c0-0.02-0.05-0.04-0.04-0.05c0.01-0.02,0.03,0.02,0.03,0.02c0.02,0,0.04-0.03,0.05-0.04
			c0.04-0.05,0.01-0.08,0.06-0.14c0.03-0.01,0.08-0.01,0.08-0.05c-0.12-0.06,0.07-0.04,0.04-0.07c-0.02,0-0.04-0.02-0.04-0.05
			c0.06-0.04,0.09-0.11,0.17-0.13c-0.02-0.07-0.07-0.08,0-0.12c0.04,0.02,0.08,0.02,0.14,0c0.03,0,0.03-0.04,0.05-0.04
			c0.03-0.01,0.01-0.02,0.02-0.04c0.05-0.04,0.1-0.05,0.1-0.08c-0.01-0.05,0.05-0.02,0.08-0.05c0.01-0.01,0.01-0.05,0.02-0.06
			c0.03-0.03,0.05-0.05,0.1-0.06c0-0.04,0.02-0.07,0.04-0.1c0.01-0.01,0.05,0,0.06-0.01c0.01-0.01-0.02-0.06,0.01-0.06
			c0.05-0.01,0.09-0.02,0.1-0.06c0-0.01,0.05-0.01,0.06-0.01c0.01-0.01,0.03-0.06,0.04-0.07c0.04-0.03,0.08-0.05,0.13-0.09
			c0.04-0.03,0.09-0.06,0.13-0.09c0.03-0.02,0.04-0.06,0.07-0.08c0.01-0.01,0.05,0,0.06-0.01c0.01-0.01-0.02-0.07,0.01-0.06
			c0.04-0.06,0.04-0.01,0.11-0.03c0.01-0.06,0.09-0.08,0.12-0.12c0-0.05-0.06-0.06-0.02-0.09c0.06,0.09,0.05-0.08,0.13-0.06
			c-0.07-0.12,0.09-0.09,0.04-0.19c0-0.06-0.06-0.08-0.08-0.1c-0.03-0.03-0.08-0.05-0.11-0.1c-0.01-0.08-0.11-0.03-0.09-0.16
			c-0.26-0.14-0.47-0.34-0.72-0.49c-0.2,0.02-0.23,0.11-0.33,0.2c-0.04,0.03-0.09,0.06-0.13,0.09c-0.03,0.02-0.04,0.06-0.07,0.08
			c-0.02,0.01-0.05,0.01-0.05,0.04c0.01,0.03-0.05,0.06-0.07,0.08c-0.03,0.04-0.05,0.08-0.09,0.11c-0.09,0.03-0.11,0.09-0.21,0.11
			c0.01,0.04-0.03,0.05-0.04,0.07c-0.02,0.02-0.03,0.05-0.04,0.07c-0.11,0.02-0.09,0.06-0.15,0.13c-0.02,0.03-0.07,0.05-0.1,0.08
			c-0.03,0.04-0.04,0.08-0.06,0.11c-0.03,0.04-0.13,0.08-0.12,0.12c0.01,0.03-0.01,0.02-0.02,0.04c-0.02,0.03-0.03,0.04-0.04,0.07
			c-0.02,0.05-0.11,0.02-0.1,0.08c0.01,0.05-0.1,0.07-0.13,0.09c-0.02,0.02-0.01,0.06-0.04,0.07c-0.03,0.01-0.01,0.02-0.02,0.04
			c-0.03,0.03-0.07,0.05-0.1,0.08c-0.02,0.03-0.04,0.08-0.06,0.11c-0.02,0.03-0.03,0.04-0.04,0.07c-0.01,0.01-0.05,0-0.06,0.01
			c-0.09,0.09-0.07,0.14-0.13,0.09c-0.04-0.03-0.04-0.11-0.08-0.1c-0.05,0.01-0.03-0.07-0.05-0.11c0,0-0.06-0.01-0.06-0.02
			c-0.01-0.01,0-0.05-0.01-0.06c-0.06-0.06-0.13-0.03-0.2-0.1c-0.01-0.06-0.05-0.06-0.05-0.11c-0.08-0.01-0.15-0.04-0.2-0.1
			c-0.02-0.04-0.05-0.05-0.05-0.11c-0.03-0.01-0.07-0.01-0.1-0.04c-0.02-0.03-0.01-0.09-0.05-0.08c0,0.02-0.02,0.04-0.03,0.01
			c0.04-0.01-0.01-0.02-0.01-0.03c-0.01-0.04,0-0.07,0.01-0.09c-0.03,0.01-0.05-0.01-0.06-0.02c-0.02-0.01-0.05-0.04-0.07-0.04
			c-0.04-0.06-0.12-0.07-0.13-0.18c-0.03,0.01-0.05-0.01-0.06-0.02c-0.02-0.01-0.05-0.03-0.07-0.04c-0.01,0,0-0.02-0.01-0.03
			c-0.01-0.01-0.04,0.02-0.06,0.01c-0.02-0.02-0.02-0.07-0.05-0.08c-0.02-0.01-0.05-0.01-0.06-0.02c-0.04-0.02-0.04-0.05-0.07-0.07
			c-0.01-0.01-0.04,0.02-0.06,0.01c-0.02-0.01-0.04-0.08-0.07-0.07c-0.07,0.01-0.22-0.15-0.24-0.16c-0.04-0.01-0.09,0.01-0.15,0
			c-0.01,0-0.03-0.05-0.04-0.05c-0.02,0-0.07,0.01-0.08,0.02c-0.11,0.04-0.08,0.18-0.21,0.23c0,0.04,0.03,0.1,0,0.12
			c-0.03-0.05-0.16,0.06-0.19,0.08c-0.03,0.02-0.04,0.01-0.05,0.04c-0.01,0.01-0.05,0-0.06,0.01c-0.03,0.03-0.04,0.11-0.06,0.14
			c-0.01,0.02-0.04,0.03-0.05,0.04c-0.02,0.02-0.03,0.05-0.04,0.07c0,0.1,0.06,0.14,0.07,0.17c0.01,0.03,0.03,0.01,0.03,0.02
			c0.04,0.06,0.03,0.1,0.06,0.14c0.01,0.01,0.05,0,0.06,0.02c0.01,0.01,0.01,0.04,0.01,0.06c0.01,0.02,0.03,0.01,0.03,0.02
			c0.02,0.03,0.03,0.08,0.05,0.11c0.01,0.01,0.05,0.03,0.07,0.04c0.03,0.02,0.05,0.05,0.07,0.07c0.04,0.05,0.05,0.12,0.09,0.16
			c0.01,0.01,0.05,0.03,0.07,0.04c0.02,0.02,0.05,0.03,0.07,0.04c0.05,0.04,0.06,0.07,0.08,0.1c0.01,0.01,0.05,0.01,0.06,0.02
			c0.02,0.02,0.03,0.06,0.05,0.08c0.01,0.01,0.02,0.01,0.03,0.02c0.04,0.04,0.08,0.07,0.11,0.1c0.07,0.06,0.11,0.12,0.16,0.17
			c0,0,0.02-0.01,0.03-0.01c0.01,0.01,0.01,0.05,0.01,0.06c0,0,0.02-0.01,0.03-0.01c0.01,0.01,0,0.05,0.01,0.06
			c0.04,0.04,0.09,0.02,0.1,0.07c0.01,0.03,0.02,0.01,0.03,0.02c0.04,0.04,0.11,0.12,0.12,0.15c0.01,0.03,0.05,0.05,0.08,0.07
			c0.05,0.07,0.06,0.13,0.1,0.19c0.01,0.01,0.06,0.03,0.07,0.04c0.03,0.04,0.03,0.07,0.05,0.11c-0.11,0.05-0.16,0.14-0.21,0.23
			c-0.15,0.1-0.26,0.27-0.38,0.4c-0.01,0.01-0.04,0-0.06,0.01c-0.02,0.02-0.01,0.06-0.04,0.07c-0.07,0.02-0.05,0.13-0.11,0.15
			c-0.1,0.06-0.16,0.19-0.23,0.27c-0.06,0.06-0.14,0.11-0.2,0.17c-0.02,0.02-0.04,0.08-0.06,0.11c-0.04,0.04-0.07,0.07-0.13,0.09
			c-0.02,0.14-0.12,0.17-0.2,0.26c-0.01,0.01-0.01,0.02-0.02,0.04c-0.05,0.06-0.07,0.1-0.11,0.15c-0.02,0.02-0.06,0.01-0.05,0.04
			c0.01,0.05-0.05,0.02-0.08,0.05c-0.02,0.01-0.02,0.09-0.04,0.1c-0.02,0.01-0.05-0.03-0.06-0.02c-0.01,0.01,0,0.08-0.01,0.09
			c-0.04,0.06-0.11,0.03-0.1,0.08c0.01,0.03-0.01,0.02-0.02,0.04c-0.08,0.08-0.21,0.15-0.24,0.21c-0.02,0.04,0.01,0.15-0.05,0.16
			c-0.01,0.07,0.08,0.06,0.11,0.1c0.02,0.02,0.03,0.06,0.05,0.08c0.02,0.02,0.04,0.03,0.07,0.04c0,0.09,0.05,0.11,0.06,0.14
			c0.02,0.03,0.01,0.04,0.04,0.05c0.01,0,0.01,0.05,0.01,0.06c0,0,0.02-0.01,0.03-0.01c0.01,0.01,0,0.05,0.01,0.06
			c0.02,0.02,0.07,0.01,0.12,0.03c0.05,0.03,0.07,0.06,0.1,0.07c-0.05-0.01,0.11-0.03,0.14-0.03c0.05,0.15,0.29,0,0.33,0.16
			c0.1-0.03,0.16,0,0.23-0.02c0.04-0.01,0.04-0.06,0.07-0.08c0.03-0.02,0.08-0.01,0.11-0.03c0.01-0.11,0.07-0.07,0.12-0.12
			c0.05-0.06-0.05-0.06,0.01-0.09c0.04-0.01,0.07-0.02,0.11-0.03c0.05-0.08,0.07-0.2,0.11-0.27c0.02-0.04,0.06-0.04,0.1-0.08
			c0.04-0.06,0.06-0.15,0.08-0.17c0,0,0.03,0.07,0.04,0.05c-0.02-0.06,0.02-0.07,0.04-0.1c0.03-0.05,0.04-0.06,0.06-0.11
			c0.1,0,0.08-0.06,0.1-0.08c0.04-0.07,0.13-0.06,0.15-0.13c-0.03,0-0.02-0.03-0.01-0.06c0.04-0.02,0.04-0.06,0.07-0.08
			c0.04-0.01,0.04,0.04,0.07,0.04c0-0.03,0.04-0.04,0.08-0.05c-0.01-0.05-0.02-0.07-0.05-0.08c-0.04-0.02,0.08-0.02,0.08-0.02
			c0.01-0.01-0.01-0.05-0.01-0.06c0-0.05,0.03-0.1,0.09-0.11c0.02,0.05-0.02,0.08,0.02,0.09c0.04-0.04,0.01-0.13,0.05-0.16
			c0.02-0.02,0.06,0.04,0.06-0.01c-0.03,0-0.02-0.03-0.01-0.06c-0.01-0.05,0-0.08,0.04-0.1c0.05-0.02,0.06,0.03,0.1,0.04
			c-0.01-0.12,0.11-0.08,0.15-0.13c0.02-0.03,0-0.05-0.01-0.06c-0.02-0.01,0.02-0.04,0.02-0.04c0.01-0.02,0.03-0.06,0.04-0.07
			c0.01-0.02,0.07,0,0.08-0.02c0.01-0.01-0.01-0.14,0.06-0.11c0.05-0.02,0.07,0.02,0.12,0c0.02,0.09,0.1,0.12,0.16,0.17
			c0.03,0.03,0.02,0.08,0.05,0.11c0.03,0.03,0.08,0.04,0.1,0.07c0.02,0.02,0.03,0.03,0.04,0.05c0.06,0.08,0.11,0.13,0.18,0.17
			c0.04,0.09,0.08,0.13,0.12,0.15c0.08,0.05,0.15,0.1,0.21,0.16c0.02,0.02,0.01,0.06,0.04,0.05c0.03-0.01,0.05,0.06,0.07,0.07
			c0.05,0.04,0.17,0.1,0.18,0.14c0.01,0.03,0.02,0.01,0.03,0.02c0.06,0.06,0.11,0.14,0.16,0.18c0.03,0.02,0.05,0.05,0.07,0.07
			c0.04,0.03,0.1,0.06,0.11,0.1c0.01,0.04,0.06,0.08,0.08,0.1c0.05,0.06,0.11,0.1,0.15,0.15c0.02,0.02,0.03,0.08,0.05,0.11
			c0.02,0.02,0.08,0,0.1,0.04c-0.05,0.02,0.05,0.09,0.04,0.17c0.06-0.06,0.1,0.03,0.12,0.03c0.05,0,0.06-0.06,0.08-0.02
			c0.03,0.17,0.13,0.23,0.26,0.24c0.03-0.02,0.02-0.07,0.04-0.1c0.03-0.05,0.13-0.09,0.12-0.12c-0.01-0.03,0.01-0.02,0.02-0.04
			c0.06-0.06,0.13-0.12,0.19-0.2c0.03-0.03,0.04-0.08,0.06-0.11c0.04-0.04,0.09-0.05,0.13-0.09c0.01-0.01,0.01-0.05,0.02-0.06
			c0.02-0.03,0.06-0.02,0.08-0.05c0.02-0.02-0.01-0.07,0.01-0.09c0.01-0.02,0.06-0.02,0.08-0.05c0.01-0.01-0.02-0.05-0.01-0.06
			c0.01-0.01,0.05,0,0.06-0.01c0.01-0.01-0.02-0.05-0.01-0.06c0.01-0.02,0.06,0,0.05-0.04c-0.01-0.03,0.03-0.07,0.04-0.1
			c0.02-0.05,0.06-0.08,0.06-0.14C24.54,33.78,24.49,33.74,24.44,33.7z M22.27,31.3c0.05-0.02,0.07,0.12-0.01,0.09
			c0-0.02-0.01-0.04-0.01-0.06C22.27,31.34,22.27,31.32,22.27,31.3z M19.59,34.62c-0.02,0-0.04,0.01-0.06,0.01
			c-0.01-0.05-0.02-0.1-0.03-0.14c0.06-0.03,0.01,0.14,0.1,0.07C19.61,34.58,19.59,34.6,19.59,34.62z"/>
	</g>
</g>
<g id="Shape_5_1_">
	<g>
		<path class="st0" d="M34.94,45.2c-0.01-0.03-0.01-0.09-0.05-0.08c-0.03,0.01-0.02-0.01-0.03-0.02c-0.06-0.04-0.09-0.07-0.12-0.15
			c-0.03-0.04-0.11,0.02-0.12-0.03c0.01-0.1-0.06-0.06-0.08-0.1c0.02,0,0.04-0.01,0.06-0.01c-0.07-0.12-0.2-0.15-0.27-0.27
			c-0.05,0.01-0.09,0.02-0.14,0.03c0-0.04,0.03-0.06,0.04-0.1c-0.04-0.01-0.07-0.02-0.1-0.04c-0.05,0.01,0-0.05-0.04-0.05
			c0,0.08-0.07-0.07-0.07-0.07c-0.01-0.02-0.06-0.02-0.05-0.08c-0.05-0.01-0.1-0.04-0.14-0.09c0.05-0.08-0.07-0.08-0.09-0.16
			c-0.05,0-0.06,0.06-0.08,0.02c0-0.1-0.05-0.13-0.07-0.2c-0.04,0.02-0.07,0-0.09-0.01c-0.02-0.01-0.05-0.04-0.07-0.04
			c0.05-0.03-0.02-0.03-0.04-0.05c-0.02-0.02-0.03-0.06-0.05-0.08c-0.01-0.01-0.06-0.02-0.05-0.08c-0.05,0.01-0.1,0-0.12-0.03
			c-0.01-0.09-0.08-0.07-0.09-0.16c-0.09,0-0.08-0.08-0.14-0.12c0.01,0-0.02,0.05-0.03,0.01c-0.01-0.07-0.07-0.07-0.07-0.17
			c-0.09,0.05-0.1-0.02-0.11-0.1c0.07-0.01,0.11-0.03,0.13-0.06c0.02,0.05-0.02,0.08,0.02,0.09c0.02-0.06,0.04-0.11,0.06-0.14
			c0-0.01,0.05,0,0.06-0.01c0-0.02-0.05-0.04-0.04-0.05c0.01-0.02,0.03,0.02,0.03,0.02c0.02,0,0.04-0.03,0.05-0.04
			c0.04-0.05,0.01-0.08,0.06-0.14c0.03-0.01,0.08-0.01,0.08-0.05c-0.12-0.06,0.07-0.04,0.04-0.07c-0.02,0-0.04-0.02-0.04-0.05
			c0.06-0.04,0.09-0.11,0.17-0.13c-0.02-0.07-0.07-0.08,0-0.12c0.04,0.02,0.08,0.02,0.14,0c0.03,0,0.03-0.04,0.05-0.04
			c0.03-0.01,0.01-0.02,0.02-0.04c0.05-0.04,0.1-0.05,0.1-0.08c-0.01-0.05,0.05-0.02,0.08-0.05c0.01-0.01,0.01-0.05,0.02-0.06
			c0.03-0.03,0.05-0.05,0.1-0.06c0-0.04,0.02-0.07,0.04-0.1c0.01-0.01,0.05,0,0.06-0.01c0.01-0.01-0.02-0.07,0.02-0.06
			c0.05-0.01,0.09-0.02,0.1-0.06c0-0.01,0.05-0.01,0.06-0.01c0.01-0.01,0.03-0.06,0.04-0.07c0.04-0.03,0.08-0.05,0.13-0.09
			c0.04-0.03,0.09-0.06,0.13-0.09c0.03-0.02,0.04-0.06,0.07-0.08c0.01-0.01,0.05,0,0.06-0.01c0.01-0.01-0.02-0.07,0.01-0.06
			c0.04-0.06,0.04-0.01,0.11-0.03c0.01-0.06,0.09-0.08,0.12-0.12c0-0.05-0.06-0.06-0.02-0.09c0.06,0.09,0.05-0.08,0.13-0.06
			c-0.07-0.12,0.09-0.09,0.04-0.19c0-0.06-0.06-0.08-0.08-0.1c-0.03-0.03-0.08-0.05-0.11-0.1c-0.01-0.08-0.11-0.03-0.09-0.16
			c-0.26-0.14-0.47-0.34-0.72-0.49c-0.2,0.02-0.23,0.11-0.33,0.2c-0.04,0.03-0.09,0.06-0.13,0.09c-0.03,0.02-0.04,0.06-0.07,0.08
			c-0.02,0.01-0.05,0.01-0.05,0.04c0.01,0.03-0.05,0.06-0.07,0.08c-0.03,0.04-0.05,0.08-0.09,0.11c-0.09,0.03-0.11,0.09-0.21,0.11
			c0.01,0.04-0.03,0.05-0.04,0.07c-0.02,0.02-0.03,0.05-0.04,0.07c-0.11,0.02-0.09,0.06-0.15,0.13c-0.02,0.02-0.07,0.05-0.1,0.08
			c-0.03,0.04-0.04,0.08-0.06,0.11c-0.03,0.04-0.13,0.08-0.12,0.12c0.01,0.03-0.01,0.02-0.02,0.04c-0.02,0.03-0.03,0.04-0.04,0.07
			c-0.02,0.05-0.11,0.02-0.1,0.08c0.01,0.05-0.1,0.07-0.13,0.09c-0.02,0.02-0.01,0.06-0.04,0.07c-0.03,0.01-0.01,0.02-0.02,0.04
			c-0.03,0.03-0.07,0.05-0.1,0.08c-0.02,0.03-0.04,0.08-0.06,0.11c-0.02,0.03-0.03,0.04-0.04,0.07c-0.01,0.01-0.05,0-0.06,0.01
			c-0.09,0.09-0.07,0.14-0.13,0.09c-0.04-0.03-0.04-0.11-0.08-0.1c-0.05,0.01-0.03-0.07-0.05-0.11c0,0-0.06-0.01-0.06-0.02
			c-0.01-0.01,0-0.05-0.01-0.06c-0.06-0.06-0.13-0.03-0.2-0.1c-0.01-0.06-0.05-0.06-0.05-0.11c-0.08-0.01-0.15-0.04-0.2-0.1
			c-0.02-0.04-0.05-0.05-0.05-0.11c-0.03-0.01-0.07-0.01-0.1-0.04c-0.02-0.03-0.01-0.09-0.05-0.08c0,0.02-0.01,0.04-0.03,0.01
			c0.04-0.01-0.01-0.02-0.01-0.03c-0.01-0.04,0-0.07,0.01-0.09c-0.03,0.01-0.05-0.01-0.06-0.02c-0.02-0.01-0.05-0.04-0.07-0.04
			c-0.04-0.06-0.12-0.07-0.13-0.18c-0.03,0.01-0.05-0.01-0.06-0.02c-0.02-0.01-0.05-0.03-0.07-0.04c-0.01,0,0-0.02-0.01-0.03
			c-0.01-0.01-0.04,0.02-0.06,0.01c-0.02-0.02-0.02-0.06-0.05-0.08c-0.02-0.01-0.05-0.01-0.06-0.02c-0.04-0.02-0.04-0.05-0.07-0.07
			c-0.01-0.01-0.04,0.02-0.06,0.01c-0.02-0.01-0.04-0.08-0.07-0.07c-0.07,0.01-0.22-0.15-0.24-0.16c-0.04-0.01-0.09,0.01-0.15,0
			c-0.01,0-0.03-0.05-0.04-0.05c-0.02,0-0.07,0.01-0.08,0.02c-0.11,0.04-0.08,0.18-0.21,0.23c0,0.04,0.03,0.1,0,0.12
			c-0.03-0.05-0.16,0.06-0.19,0.08c-0.03,0.02-0.04,0.01-0.05,0.04c-0.01,0.01-0.05,0-0.06,0.01c-0.03,0.03-0.04,0.11-0.06,0.14
			c-0.01,0.02-0.04,0.03-0.05,0.04c-0.02,0.02-0.03,0.05-0.04,0.07c0,0.1,0.06,0.14,0.07,0.17c0.01,0.03,0.03,0.01,0.03,0.02
			c0.04,0.06,0.03,0.1,0.06,0.14c0.01,0.01,0.05,0,0.06,0.02c0.01,0.01,0.01,0.04,0.01,0.06c0.01,0.02,0.03,0.01,0.03,0.02
			c0.02,0.03,0.03,0.08,0.05,0.11c0.01,0.01,0.05,0.03,0.07,0.04c0.03,0.02,0.05,0.05,0.07,0.07c0.04,0.05,0.05,0.12,0.09,0.16
			c0.01,0.01,0.05,0.03,0.07,0.04c0.02,0.02,0.05,0.03,0.07,0.04c0.05,0.04,0.06,0.07,0.08,0.1C29.7,42,29.75,42,29.76,42.01
			c0.02,0.02,0.03,0.06,0.05,0.08c0.01,0.01,0.02,0.01,0.03,0.02c0.04,0.04,0.08,0.07,0.11,0.1c0.07,0.06,0.11,0.12,0.16,0.17
			c0,0,0.02-0.01,0.03-0.01c0.01,0,0.01,0.05,0.01,0.06c0,0,0.02-0.01,0.03-0.01c0.01,0.01,0,0.05,0.01,0.06
			c0.04,0.04,0.09,0.02,0.1,0.07c0.01,0.03,0.02,0.01,0.03,0.02c0.04,0.04,0.11,0.12,0.12,0.15c0.01,0.03,0.05,0.05,0.08,0.07
			c0.05,0.07,0.06,0.13,0.1,0.19c0.01,0.01,0.06,0.03,0.07,0.04c0.03,0.04,0.03,0.07,0.05,0.11c-0.11,0.05-0.16,0.14-0.21,0.23
			c-0.15,0.1-0.26,0.27-0.38,0.4c-0.01,0.01-0.04,0-0.06,0.01c-0.02,0.02-0.01,0.06-0.04,0.07C29.99,43.88,30,43.99,29.94,44
			c-0.1,0.06-0.16,0.19-0.23,0.27c-0.06,0.06-0.14,0.11-0.2,0.17c-0.02,0.02-0.04,0.08-0.06,0.11c-0.04,0.04-0.07,0.07-0.13,0.09
			c-0.02,0.14-0.12,0.17-0.2,0.26c-0.01,0.01-0.01,0.02-0.02,0.04c-0.05,0.06-0.07,0.1-0.11,0.15c-0.02,0.02-0.06,0.01-0.05,0.04
			c0.01,0.05-0.05,0.02-0.08,0.05c-0.02,0.01-0.02,0.09-0.04,0.1c-0.02,0.01-0.05-0.02-0.06-0.02c-0.01,0.01,0,0.08-0.01,0.09
			c-0.04,0.06-0.11,0.03-0.1,0.08c0.01,0.03-0.01,0.02-0.02,0.04c-0.08,0.08-0.21,0.15-0.24,0.21c-0.02,0.04,0.01,0.15-0.05,0.16
			c-0.01,0.07,0.08,0.06,0.11,0.1c0.02,0.02,0.03,0.06,0.05,0.08c0.02,0.02,0.04,0.03,0.07,0.04c0,0.09,0.05,0.11,0.06,0.14
			c0.02,0.03,0.01,0.04,0.04,0.05c0.01,0,0.01,0.05,0.01,0.06c0,0,0.02-0.01,0.03-0.01c0.01,0.01,0,0.05,0.01,0.06
			c0.02,0.02,0.07,0.01,0.12,0.03c0.05,0.03,0.07,0.06,0.1,0.07c-0.05-0.01,0.11-0.03,0.14-0.03c0.05,0.15,0.29,0,0.33,0.16
			c0.1-0.03,0.16,0,0.23-0.02c0.04-0.01,0.04-0.06,0.07-0.08c0.03-0.02,0.08-0.01,0.11-0.03c0.01-0.11,0.07-0.07,0.12-0.12
			c0.05-0.06-0.05-0.06,0.01-0.09c0.04-0.01,0.07-0.02,0.11-0.03c0.05-0.08,0.07-0.2,0.11-0.27c0.02-0.04,0.06-0.04,0.1-0.08
			c0.04-0.06,0.06-0.15,0.08-0.17c0,0,0.03,0.07,0.04,0.05c-0.02-0.06,0.02-0.07,0.04-0.1c0.03-0.05,0.04-0.06,0.06-0.11
			c0.1,0,0.08-0.06,0.1-0.08c0.04-0.07,0.13-0.06,0.15-0.13c-0.03,0-0.02-0.03-0.01-0.06c0.04-0.02,0.04-0.06,0.07-0.08
			c0.04-0.01,0.04,0.04,0.07,0.04c0-0.03,0.04-0.04,0.08-0.05c-0.01-0.05-0.02-0.07-0.05-0.08c-0.04-0.02,0.08-0.02,0.08-0.02
			c0.01-0.01-0.01-0.05-0.01-0.06c0-0.05,0.03-0.1,0.09-0.11c0.02,0.05-0.02,0.08,0.02,0.09c0.04-0.04,0.01-0.13,0.05-0.16
			c0.02-0.02,0.06,0.04,0.06-0.01c-0.03,0-0.02-0.03-0.01-0.06c-0.01-0.05,0-0.08,0.04-0.1c0.05-0.02,0.06,0.03,0.1,0.04
			c-0.01-0.12,0.11-0.08,0.15-0.13c0.02-0.03,0-0.05-0.01-0.06c-0.02-0.01,0.02-0.04,0.02-0.04c0.01-0.02,0.03-0.06,0.04-0.07
			c0.01-0.02,0.07,0,0.08-0.02c0.01-0.01-0.01-0.14,0.06-0.11c0.05-0.02,0.07,0.02,0.12,0c0.02,0.09,0.1,0.12,0.16,0.17
			c0.03,0.03,0.02,0.08,0.05,0.11c0.03,0.03,0.08,0.04,0.1,0.07c0.02,0.02,0.03,0.03,0.04,0.05c0.06,0.08,0.11,0.13,0.18,0.17
			c0.04,0.09,0.08,0.13,0.12,0.15c0.08,0.05,0.15,0.1,0.21,0.16c0.02,0.02,0.01,0.06,0.04,0.05c0.03-0.01,0.05,0.06,0.07,0.07
			c0.05,0.04,0.17,0.1,0.18,0.14c0.01,0.03,0.02,0.01,0.03,0.02c0.06,0.06,0.11,0.14,0.16,0.17c0.03,0.02,0.05,0.05,0.07,0.07
			c0.04,0.03,0.1,0.06,0.11,0.1c0.01,0.04,0.06,0.08,0.08,0.1c0.05,0.06,0.11,0.1,0.15,0.15c0.02,0.02,0.03,0.08,0.05,0.11
			c0.02,0.02,0.08,0,0.1,0.04c-0.05,0.02,0.05,0.09,0.04,0.17c0.06-0.06,0.1,0.03,0.12,0.03c0.05,0,0.06-0.06,0.08-0.02
			c0.03,0.17,0.13,0.23,0.26,0.24c0.03-0.02,0.02-0.07,0.04-0.1c0.03-0.05,0.13-0.09,0.12-0.12c-0.01-0.03,0.01-0.02,0.02-0.04
			c0.06-0.06,0.13-0.12,0.19-0.2c0.03-0.03,0.04-0.08,0.06-0.11c0.04-0.04,0.09-0.05,0.13-0.09c0.01-0.01,0.01-0.05,0.02-0.06
			c0.02-0.03,0.06-0.02,0.08-0.05c0.02-0.02-0.01-0.07,0.01-0.09c0.01-0.02,0.06-0.02,0.08-0.05c0.01-0.01-0.02-0.05-0.01-0.06
			c0.01-0.01,0.05,0,0.06-0.01c0.01-0.01-0.02-0.05-0.01-0.06c0.01-0.02,0.06,0,0.05-0.04c-0.01-0.03,0.03-0.07,0.04-0.1
			c0.02-0.05,0.06-0.08,0.06-0.14C35.04,45.28,34.99,45.24,34.94,45.2z M32.77,42.8c0.05-0.02,0.07,0.12-0.01,0.09
			c0-0.02-0.01-0.04-0.01-0.06C32.77,42.84,32.77,42.82,32.77,42.8z M30.09,46.12c-0.02,0-0.04,0.01-0.06,0.01
			c-0.01-0.05-0.02-0.1-0.03-0.14c0.06-0.03,0.01,0.14,0.1,0.07C30.11,46.09,30.09,46.1,30.09,46.12z"/>
	</g>
</g>
<g id="X_1_">
	<g id="Line">
		<g>
			<rect x="4.99" y="25.01" class="st0" width="43.02" height="0.99"/>
		</g>
	</g>
	<g id="Line_1_">
		<g>
			<rect x="4.99" y="37" class="st0" width="43.02" height="1.01"/>
		</g>
	</g>
</g>
<g id="Y_1_">
	<g id="Line_2_">
		<g>
			<rect x="37.01" y="14" class="st0" width="0.98" height="34.99"/>
		</g>
	</g>
	<g id="Line_3_">
		<g>
			<rect x="26" y="14" class="st0" width="1.01" height="34.99"/>
		</g>
	</g>
	<g id="Line_4_">
		<g>
			<rect x="15.01" y="14" class="st0" width="0.98" height="34.99"/>
		</g>
	</g>
</g>
</svg>
